<?xml version="1.0" standalone="no"?>
<!DOCTYPE svg PUBLIC "-//W3C//DTD SVG 20010904//EN"
 "http://www.w3.org/TR/2001/REC-SVG-20010904/DTD/svg10.dtd">
<svg version="1.0" xmlns="http://www.w3.org/2000/svg"
 width="300.000000pt" height="169.000000pt" viewBox="0 0 300.000000 169.000000"
 preserveAspectRatio="xMidYMid meet">
<metadata>
Created by potrace 1.10, written by Peter Selinger 2001-2011
</metadata>
<g transform="translate(0.000000,169.000000) scale(0.100000,-0.100000)"
fill="#000000" stroke="none">
<path d="M1924 1061 c4 -6 13 -11 20 -11 22 0 66 -55 86 -109 24 -61 26 -128
5 -151 -13 -14 -9 -16 40 -16 51 0 53 1 38 18 -37 41 18 225 75 254 34 17 40
27 12 19 -36 -10 -70 -44 -90 -88 l-18 -39 -23 42 c-13 22 -37 49 -54 59 -37
23 -101 38 -91 22z"/>
<path d="M763 1040 c-37 -15 -58 -79 -32 -96 7 -4 9 0 5 13 -9 27 29 73 59 73
13 0 36 -10 51 -23 22 -19 28 -34 32 -79 7 -88 -28 -138 -98 -138 -42 0 -67
15 -86 52 -22 42 -16 149 10 177 23 25 16 26 -24 6 -38 -19 -60 -63 -60 -115
0 -55 26 -96 75 -120 112 -54 245 9 245 116 0 60 -22 100 -70 124 -42 21 -72
24 -107 10z"/>
<path d="M1113 1040 c-37 -15 -58 -79 -32 -96 7 -4 9 0 5 13 -9 28 29 73 60
73 30 0 84 -50 84 -78 0 -14 7 -19 30 -19 17 0 30 4 30 9 0 26 -35 70 -70 88
-42 21 -72 24 -107 10z"/>
<path d="M2324 1043 c-105 -3 -124 -6 -139 -23 -12 -13 -15 -27 -11 -45 9 -35
21 -31 21 8 0 32 0 32 58 37 l57 5 0 -117 c0 -92 -3 -119 -14 -125 -9 -5 9 -9
45 -9 41 -1 56 2 45 8 -13 7 -16 29 -16 126 l0 118 36 -4 c25 -3 38 -11 44
-26 7 -17 9 -15 9 17 1 20 -2 36 -6 35 -5 -1 -63 -4 -129 -5z"/>
<path d="M2545 1041 c-43 -4 -63 -9 -52 -13 15 -6 17 -22 17 -119 0 -88 -3
-114 -15 -123 -12 -8 11 -12 94 -14 l108 -3 11 43 11 42 -23 -29 c-20 -25 -30
-29 -77 -30 l-54 0 -3 53 -3 52 41 0 c33 0 42 -4 50 -22 7 -18 9 -12 8 27 0
28 -2 43 -5 33 -3 -10 -18 -17 -44 -20 -22 -2 -42 -2 -45 1 -2 2 -4 26 -4 53
0 45 2 48 25 48 17 0 29 -7 35 -22 8 -20 9 -18 9 15 1 20 -2 36 -6 35 -5 -1
-39 -4 -78 -7z"/>
<path d="M2792 1040 c-30 -13 -48 -54 -36 -85 5 -14 34 -42 64 -63 65 -45 83
-81 55 -112 -26 -29 -85 -27 -115 5 -19 20 -22 31 -17 67 l6 43 -15 -33 c-12
-28 -12 -37 0 -66 8 -19 23 -39 34 -45 56 -30 155 3 168 55 10 41 -7 75 -56
111 -79 58 -90 71 -84 87 12 32 94 32 94 0 0 -8 5 -14 10 -14 6 0 10 11 10 24
0 18 -7 25 -31 30 -40 8 -59 7 -87 -4z"/>
<path d="M103 1029 c14 -8 17 -26 17 -114 0 -58 -4 -105 -8 -105 -8 0 -17 16
-40 70 -8 18 -11 20 -11 7 -1 -10 6 -33 14 -53 39 -93 234 -82 243 15 4 38
-20 71 -51 71 -19 0 -19 1 -4 18 24 27 21 58 -9 81 -22 17 -41 21 -98 21 -53
-1 -67 -3 -53 -11z m111 -25 c11 -29 6 -63 -11 -73 -15 -8 -14 -10 10 -16 70
-18 55 -125 -18 -125 l-25 0 0 115 c0 106 1 115 19 115 10 0 22 -7 25 -16z"/>
<path d="M353 1033 c15 -4 17 -19 17 -123 0 -99 -3 -121 -16 -128 -11 -6 4 -9
45 -8 36 0 54 4 45 9 -11 6 -14 33 -14 122 l0 115 28 0 c35 0 52 -16 52 -49 0
-33 -10 -48 -38 -58 -21 -8 -20 -11 32 -89 65 -97 103 -124 174 -124 62 0 76
15 22 24 -27 4 -51 18 -77 44 -71 72 -119 132 -106 132 23 0 53 39 53 69 0 20
-9 36 -26 50 -23 18 -40 21 -118 20 -50 -1 -83 -3 -73 -6z"/>
<path d="M1028 1024 c-37 -19 -58 -63 -58 -118 0 -104 128 -169 238 -119 32
14 34 17 15 20 -12 2 -31 -1 -42 -6 -25 -14 -77 -14 -102 -1 -10 6 -26 25 -35
42 -22 42 -16 149 10 177 22 24 12 26 -26 5z"/>
<path d="M1333 1033 c13 -3 17 -15 17 -52 0 -46 1 -48 30 -48 29 0 30 2 30 48
0 37 4 49 18 52 9 3 -12 5 -48 5 -36 0 -57 -2 -47 -5z"/>
<path d="M1504 1032 c3 -5 -9 -28 -26 -51 -45 -61 -25 -64 30 -4 26 28 54 54
62 56 8 3 -4 6 -28 6 -24 1 -41 -3 -38 -7z"/>
<path d="M1723 1029 c14 -8 18 -21 15 -51 -2 -38 0 -41 25 -44 26 -3 27 -1 27
42 0 37 3 44 19 44 24 0 35 -31 26 -76 -4 -26 -3 -34 9 -34 36 0 47 -69 16
-100 -21 -21 -66 -27 -72 -9 -2 6 -21 9 -43 7 l-40 -4 37 -17 c85 -39 190 -6
196 62 4 38 -20 71 -51 71 -19 0 -19 1 -4 18 24 27 21 58 -9 81 -22 17 -41 21
-98 21 -55 -1 -67 -3 -53 -11z"/>
<path d="M1491 899 c2 -7 -1 -24 -5 -37 -11 -32 -40 -25 -44 11 -2 15 -7 27
-11 27 -12 0 0 -54 13 -62 19 -13 46 -9 46 7 0 8 5 15 10 15 6 0 13 -7 16 -15
4 -8 13 -15 21 -15 12 0 12 2 -1 16 -9 8 -16 21 -16 28 0 8 -7 19 -16 27 -13
11 -15 11 -13 -2z"/>
<path d="M1548 903 c6 -2 12 -18 12 -34 0 -32 15 -39 23 -10 6 25 -10 51 -31
50 -10 0 -12 -3 -4 -6z"/>
<path d="M1114 870 c-1 -17 3 -30 7 -30 5 0 9 6 9 14 0 8 8 17 18 19 14 4 14
5 -3 6 -17 1 -18 3 -5 11 12 8 12 10 -5 10 -15 0 -20 -7 -21 -30z"/>
<path d="M1190 871 c0 -29 20 -46 20 -18 1 7 6 5 14 -5 7 -10 19 -18 26 -18 9
0 8 5 -4 19 -9 10 -16 25 -14 32 2 8 -7 15 -19 17 -20 3 -23 -1 -23 -27z"/>
<path d="M1270 870 c0 -23 5 -30 19 -30 11 0 23 4 26 10 3 6 -1 7 -9 4 -9 -3
-16 -2 -16 4 0 6 6 13 13 15 9 4 9 6 -1 6 -7 1 -10 6 -7 11 3 6 -1 10 -9 10
-11 0 -16 -9 -16 -30z"/>
<path d="M1350 870 c0 -23 4 -30 20 -30 11 0 20 5 20 10 0 6 -3 9 -7 9 -20 -3
-26 2 -13 11 13 9 13 10 0 10 -13 0 -13 1 0 10 13 8 12 10 -2 10 -13 0 -18 -8
-18 -30z"/>
<path d="M1597 881 c-5 -21 28 -60 40 -48 3 4 1 7 -5 7 -7 0 -12 14 -12 30 0
34 -15 41 -23 11z"/>
<path d="M1657 893 c-14 -13 -6 -42 13 -48 23 -7 40 1 39 18 0 9 -2 9 -6 0 -8
-21 -33 -15 -33 8 0 16 5 20 20 16 11 -3 20 -1 20 4 0 10 -43 12 -53 2z"/>
<path d="M1740 870 c0 -25 4 -30 25 -30 14 0 25 4 25 10 0 5 -7 7 -15 4 -8 -4
-15 -2 -15 4 0 6 6 13 13 15 9 4 9 6 -1 6 -7 1 -10 6 -7 11 3 6 -1 10 -9 10
-11 0 -16 -9 -16 -30z"/>
<path d="M1339 790 c-16 -17 -14 -18 41 -18 57 0 58 0 39 19 -24 24 -59 23
-80 -1z"/>
<path d="M1500 802 c0 -11 71 -78 97 -91 26 -13 90 -15 97 -2 3 5 -8 11 -25
15 -17 3 -47 22 -67 43 -25 24 -48 37 -69 39 -18 2 -33 0 -33 -4z"/>
</g>
</svg>
