<?xml version="1.0" encoding="UTF-8"?>
<svg version="1.1" xmlns="http://www.w3.org/2000/svg" width="500" height="500">
<path d="M0 0 C15.67447827 -0.09404339 31.34887856 -0.16426965 47.02357006 -0.20724869 C54.30397746 -0.22774786 61.58420812 -0.25562153 68.86450195 -0.30175781 C75.22069873 -0.34201825 81.57676735 -0.36752427 87.93308812 -0.37635398 C91.28915505 -0.38150371 94.64456905 -0.39553424 98.0005703 -0.42292023 C113.80554309 -0.54662381 128.62455053 0.18368222 144 4 C144.78691412 4.19431358 145.57382824 4.38862717 146.38458824 4.58882904 C166.03850181 9.52445041 185.82054699 18.81414012 197.38671875 36.17578125 C200.11229311 40.94718624 202.22044325 45.80542341 204 51 C204.36931641 52.06927734 204.36931641 52.06927734 204.74609375 53.16015625 C209.27865425 69.38359695 205.43746134 87.31844483 197.50390625 101.71484375 C194.57807018 106.64078947 191.67595626 110.39426141 187.3581543 114.17944336 C186.54332077 114.89603622 185.72848724 115.61262909 184.88896179 116.35093689 C184.2656044 116.89512772 183.64224701 117.43931854 183 118 C184.58708771 118.01213028 184.58708771 118.01213028 186.20623779 118.02450562 C196.26594902 118.102601 206.32553543 118.19048911 216.38508224 118.28752708 C221.55454676 118.33709068 226.72399467 118.38341776 231.89355469 118.421875 C236.89927909 118.45924043 241.90484912 118.50572499 246.91043854 118.55806351 C248.80298352 118.5763396 250.69556123 118.59154172 252.58815765 118.60334396 C286.2279277 118.82026704 320.40997966 122.62692515 345.96875 146.8671875 C356.27917613 157.76548881 359.8559897 171.37495348 360 186 C358.99476676 201.60504936 353.73321599 217.06496197 342 228 C339.08922718 230.15559695 336.09599512 232.12176296 333 234 C333.78761719 234.17015625 334.57523437 234.3403125 335.38671875 234.515625 C353.20322874 238.47953491 369.2608338 243.30539633 382 257 C382.59425781 257.5775 383.18851562 258.155 383.80078125 258.75 C389.86592555 264.96824503 398 275.94656036 398 285 C376.55 285 355.1 285 333 285 C331.02 279.555 331.02 279.555 329 274 C321.46808361 259.15136483 308.34106413 250.98373858 292.9375 245.6875 C283.54017745 243.03122164 273.67699347 242.13095871 264 241 C264 239.68 264 238.36 264 237 C264.85722656 236.76925781 265.71445312 236.53851563 266.59765625 236.30078125 C278.56056056 232.8885887 284.78443285 228.96603633 291 218 C295.72590681 207.51287173 297.19863087 198.83502503 297.25 187.4375 C297.270625 186.32052734 297.29125 185.20355469 297.3125 184.05273438 C297.37217363 171.18560776 294.73646553 158.97223773 286.25390625 148.93359375 C276.77363499 139.80809355 264.65091194 138.37204599 252 136 C252 185.17 252 234.34 252 285 C232.86 285 213.72 285 194 285 C194 281.37 194 277.74 194 274 C192.29070312 274.58007812 192.29070312 274.58007812 190.546875 275.171875 C163.93192323 284 163.93192323 284 152 284 C158.16241561 310.72355232 169.33780448 335.22520299 193 351 C193.06058594 349.78441406 193.12117187 348.56882812 193.18359375 347.31640625 C193.26798332 345.73175772 193.3526321 344.14712298 193.4375 342.5625 C193.47681641 341.76005859 193.51613281 340.95761719 193.55664062 340.13085938 C193.88671875 334.11328125 193.88671875 334.11328125 195 333 C196.74382535 332.90112208 198.49165543 332.87200968 200.23828125 332.87060547 C201.35614014 332.86745331 202.47399902 332.86430115 203.62573242 332.86105347 C205.45068237 332.86408981 205.45068237 332.86408981 207.3125 332.8671875 C208.55169189 332.86623077 209.79088379 332.86527405 211.06762695 332.86428833 C213.69388281 332.86360626 216.32004633 332.86496462 218.94628906 332.86962891 C222.31928714 332.87532619 225.69220565 332.87204698 229.06520081 332.86605644 C232.27263677 332.8615823 235.480063 332.86471118 238.6875 332.8671875 C239.9041333 332.86516327 241.1207666 332.86313904 242.37426758 332.86105347 C243.49212646 332.86420563 244.60998535 332.86735779 245.76171875 332.87060547 C246.75131592 332.87140106 247.74091309 332.87219666 248.76049805 332.87301636 C251 333 251 333 252 334 C252.08858646 336.73894085 252.11523479 339.4525327 252.09765625 342.19140625 C252.09553383 343.42116432 252.09553383 343.42116432 252.09336853 344.67576599 C252.08775289 347.30471382 252.07519779 349.93357773 252.0625 352.5625 C252.05748701 354.34049357 252.05292376 356.11848846 252.04882812 357.89648438 C252.03777839 362.26435545 252.02050331 366.63216348 252 371 C277.32994001 369.57345118 302.01079118 367.12881791 320.54248047 347.96069336 C322.16961091 345.90363406 322.16961091 345.90363406 323.49267578 342.86938477 C328.03703764 333.69043927 328.03703764 333.69043927 333.26599121 331.85124207 C337.31164176 331.493693 341.17074016 331.53284956 345.21875 331.73046875 C346.68696915 331.75475248 348.15529454 331.77324007 349.62365723 331.78620911 C353.46692913 331.83557544 357.30369052 331.96296615 361.14440918 332.10736084 C365.07193896 332.24097867 369.00053435 332.2998504 372.9296875 332.36523438 C380.62274307 332.50416691 388.31045558 332.72564004 396 333 C393.53798299 346.54391049 380.8640944 357.941945 370.125 365.8125 C368.43705027 366.90709341 366.72664373 367.96752218 365 369 C363.91589844 369.65484375 362.83179688 370.3096875 361.71484375 370.984375 C336.17815693 385.79907267 305.25743527 389.22670251 276.25 389.25 C275.38139343 389.25100708 274.51278687 389.25201416 273.61785889 389.25305176 C260.20175429 389.24253636 247.18687293 388.66295257 234 386 C232.87078125 385.7831958 232.87078125 385.7831958 231.71875 385.56201172 C203.69236627 380.0698623 177.50022593 366.84243001 160.84765625 342.90625 C149.93812545 325.84106215 143.18342695 305.41432615 144 285 C143.36167236 285.16081055 142.72334473 285.32162109 142.06567383 285.48730469 C138.01168827 286.16528268 134.05303959 286.18158871 129.94921875 286.203125 C129.0665332 286.21018463 128.18384766 286.21724426 127.27441406 286.22451782 C84.0742096 286.49099292 39.22074066 282.69694485 6.765625 250.80078125 C5.85296875 249.87652344 4.9403125 248.95226562 4 248 C3.31421875 247.31292969 2.6284375 246.62585938 1.921875 245.91796875 C-17.51417175 225.12490072 -23.21038503 196.16734584 -23.13037109 168.70410156 C-23.12494431 166.47714644 -23.13037833 164.25038702 -23.13671875 162.0234375 C-23.13605909 160.60937455 -23.13478027 159.19531173 -23.1328125 157.78125 C-23.13168457 156.50314453 -23.13055664 155.22503906 -23.12939453 153.90820312 C-23 151 -23 151 -22 150 C-20.33382885 149.95936168 -18.66611905 149.957279 -17 150 C-16.90295776 151.03217651 -16.90295776 151.03217651 -16.80395508 152.08520508 C-13.75767805 183.51284762 -6.8232154 215.06837419 18 237 C20.05685178 238.58417375 22.1202589 240.14783119 24.20605469 241.69262695 C24.76352386 242.10797951 25.32099304 242.52333206 25.89535522 242.95127106 C27.26224244 243.96929916 28.63094065 244.98489489 30 246 C30.07011047 217.61867171 30.12299822 189.23735642 30.15543652 160.85595894 C30.17089914 147.67770618 30.1919772 134.49950726 30.22631836 121.32128906 C30.25623911 109.83389305 30.2755794 98.34653603 30.28226548 86.85910213 C30.28617318 80.77775486 30.29534443 74.69651915 30.31719017 68.61520767 C30.33759746 62.88776133 30.34382516 57.16047219 30.33932304 51.43299294 C30.34014634 49.33440992 30.34608657 47.23582148 30.35761642 45.13726997 C30.37262688 42.26353319 30.36892247 39.39038355 30.36076355 36.51663208 C30.37387134 35.28214819 30.37387134 35.28214819 30.38724393 34.02272522 C30.32362676 25.68576565 28.64476779 17.61576539 22.7109375 11.46484375 C16.07872769 5.78658193 8.46100262 4.98023811 0 4 C0 2.68 0 1.36 0 0 Z M92 18 C92 99.84 92 181.68 92 266 C111.07402527 270.76850632 134.18981237 264.38612634 150.82421875 255.04296875 C165.95925988 245.30665078 175.85250633 230.33713375 179.875 212.875 C183.399558 192.54585298 181.11219715 172.39156245 169.125 155.1875 C165.79939633 150.81954294 162.48866298 147.16352755 158 144 C156.96166016 143.26716797 156.96166016 143.26716797 155.90234375 142.51953125 C140.67856054 132.63296753 122.03151778 128.07793375 104 129 C104 127.35 104 125.7 104 124 C105.7634375 124.0928125 105.7634375 124.0928125 107.5625 124.1875 C115.26131509 124.14690871 121.50500917 120.11565222 127 115 C137.50839953 102.99040053 141.41473131 87.39285153 141.3125 71.75 C141.30686035 70.83613525 141.3012207 69.92227051 141.29541016 68.98071289 C141.04002217 54.61703533 137.76849091 40.24063984 127.609375 29.453125 C117.78345428 20.58117717 104.85707907 18 92 18 Z " fill="#000000" transform="translate(46,51)"/>
<path d="M0 0 C5.89948248 1.34486683 8.86528252 4.37941679 12.875 8.625 C13.46796875 9.23601562 14.0609375 9.84703125 14.671875 10.4765625 C16.12388907 11.97541573 17.56324963 13.48650925 19 15 C19.0270043 13.54176788 19.04639787 12.08339325 19.0625 10.625 C19.07410156 9.81289063 19.08570313 9.00078125 19.09765625 8.1640625 C19.14466334 5.95062858 19.14466334 5.95062858 18 4 C20.97 4 23.94 4 27 4 C26.67 4.66 26.34 5.32 26 6 C25.82309174 8.82763206 25.72254573 11.6081411 25.6875 14.4375 C25.64399414 15.60249023 25.64399414 15.60249023 25.59960938 16.79101562 C25.48701806 21.33108662 25.48701806 21.33108662 27.87890625 24.9921875 C29.92598386 25.96483211 31.7712199 26.60200355 34 27 C34 27.66 34 28.32 34 29 C30.87312189 29.54720367 28.77916185 29.52425087 26.1015625 27.72265625 C23.99004341 25.88237973 21.98614401 23.97506886 20 22 C19.24460937 21.25878906 18.48921875 20.51757812 17.7109375 19.75390625 C15.79111828 17.85104657 13.88858639 15.93379192 12 14 C11.67 16.97 11.34 19.94 11 23 C11.66 23.33 12.32 23.66 13 24 C10.03 24 7.06 24 4 24 C4.66 23.67 5.32 23.34 6 23 C6.0210571 20.24452835 5.99347728 17.50408223 5.9375 14.75 C5.94845703 13.97269531 5.95941406 13.19539063 5.97070312 12.39453125 C5.90103719 10.0656986 5.76891716 8.20329717 5 6 C2.76205003 4.01220954 0.80746538 3.18544509 -2 2 C-1.34 1.34 -0.68 0.68 0 0 Z " fill="#2A1D40" transform="translate(379,343)"/>
<path d="M0 0 C1.89510699 -0.08160748 3.79124504 -0.13946459 5.6875 -0.1875 C6.74324219 -0.22230469 7.79898437 -0.25710938 8.88671875 -0.29296875 C12.4052765 0.03813769 14.23154621 0.82876293 17 3 C17.5 6 17.5 6 17 9 C15.46875 10.6875 15.46875 10.6875 14 12 C18.51101153 17.58896754 22.03757037 21.82424074 29 24 C28.67 24.66 28.34 25.32 28 26 C23.58685146 26.30435507 20.91943362 26.42293947 16.875 24.5625 C13.08758908 21.18676418 10.60505718 17.32328638 8 13 C7.67 14.98 7.34 16.96 7 19 C7.66 19.33 8.32 19.66 9 20 C6.03 20 3.06 20 0 20 C0.33 19.34 0.66 18.68 1 18 C1.09813199 15.50917924 1.13905548 13.05266211 1.125 10.5625 C1.12886719 9.88123047 1.13273437 9.19996094 1.13671875 8.49804688 C1.1306374 5.39351954 0.98890312 2.96670935 0 0 Z M7 2 C7 4.64 7 7.28 7 10 C8.32 9.67 9.64 9.34 11 9 C11.77242269 7.16299211 11.77242269 7.16299211 12 5 C10.77045984 3.18700508 10.77045984 3.18700508 9 2 C8.34 2 7.68 2 7 2 Z " fill="#271940" transform="translate(264,347)"/>
<path d="M0 0 C3.6875 0.375 3.6875 0.375 5.67578125 2.32421875 C8.70234126 6.9140117 10.55360376 11.92400797 12.51171875 17.04492188 C14.50277342 22.05358924 14.50277342 22.05358924 18.9453125 24.92578125 C19.85023438 25.07402344 20.75515625 25.22226562 21.6875 25.375 C21.6875 26.035 21.6875 26.695 21.6875 27.375 C14.52764002 27.86041424 14.52764002 27.86041424 10.875 25.75 C8.6875 23.375 8.6875 23.375 7.25 20.1875 C6.4765625 18.7953125 6.4765625 18.7953125 5.6875 17.375 C2.59788542 16.40025184 2.59788542 16.40025184 -0.3125 16.375 C-0.3125 18.025 -0.3125 19.675 -0.3125 21.375 C-2.2925 21.375 -4.2725 21.375 -6.3125 21.375 C-5.6525 21.045 -4.9925 20.715 -4.3125 20.375 C-3.47495636 18.39591496 -3.47495636 18.39591496 -2.8125 16.0625 C-2.07894347 13.65053425 -1.35759157 11.46342425 -0.2109375 9.21484375 C0.86321558 7.39686047 0.86321558 7.39686047 0.5625 5.25 C-0.58089727 2.799863 -1.84367594 2.33067383 -4.3125 1.375 C-3.3125 0.375 -3.3125 0.375 0 0 Z M2.6875 9.375 C2.3575 11.025 2.0275 12.675 1.6875 14.375 C2.6775 14.375 3.6675 14.375 4.6875 14.375 C4.3575 12.725 4.0275 11.075 3.6875 9.375 C3.3575 9.375 3.0275 9.375 2.6875 9.375 Z " fill="#2B1D42" transform="translate(362.3125,345.625)"/>
<path d="M0 0 C3.3 0 6.6 0 10 0 C9.67 0.66 9.34 1.32 9 2 C8.84995027 3.3734635 8.75161994 4.7528526 8.68359375 6.1328125 C8.64169922 6.93847656 8.59980469 7.74414062 8.55664062 8.57421875 C8.49766602 9.83685547 8.49766602 9.83685547 8.4375 11.125 C8.39431641 11.97449219 8.35113281 12.82398438 8.30664062 13.69921875 C8.20045764 15.79928223 8.09971503 17.89961948 8 20 C14.76485645 21.6120509 21.04958914 22.26618595 28 22 C28 22.99 28 23.98 28 25 C24.20372107 27.53085262 21.38655571 27.70548109 17 27 C12.88766574 25.56707524 8.9609211 23.80290202 5 22 C3.3371147 21.32395659 1.67167703 20.65400162 0 20 C0.66 19.34 1.32 18.68 2 18 C2.19893799 15.47524284 2.27847435 13.08485251 2.25 10.5625 C2.25773437 9.88123047 2.26546875 9.19996094 2.2734375 8.49804688 C2.25889434 4.78590558 2.10940418 3.16410628 0 0 Z " fill="#24193A" transform="translate(339,347)"/>
<path d="M0 0 C0.87527344 -0.00257813 1.75054687 -0.00515625 2.65234375 -0.0078125 C5.0625 0.125 5.0625 0.125 8.0625 1.125 C8.0625 3.105 8.0625 5.085 8.0625 7.125 C7.4025 7.125 6.7425 7.125 6.0625 7.125 C4.4375 5.125 4.4375 5.125 3.0625 3.125 C-1.683838 3.2667301 -1.683838 3.2667301 -5.4375 5.75 C-6.16032347 9.18341149 -5.80028505 11.73548729 -4.9375 15.125 C-3.37952118 17.27282671 -3.37952118 17.27282671 -0.9375 18.125 C2.56240038 18.05357346 4.347819 17.86520532 6.8125 15.3125 C7.97466036 13.27871937 9.07604157 11.24967969 10.0625 9.125 C10.4375 12.3125 10.4375 12.3125 10.0625 16.125 C7.52086894 19.11141649 5.92628061 20.73671237 2.09375 21.53515625 C-2.56625195 21.74127172 -5.97092111 20.67494357 -9.9375 18.125 C-12.60586411 14.12245384 -12.7715238 10.83186701 -11.9375 6.125 C-8.24777051 1.46428906 -5.80211323 -0.01703998 0 0 Z " fill="#271C41" transform="translate(424.9375,346.875)"/>
<path d="M0 0 C3.96 0 7.92 0 12 0 C12 1.65 12 3.3 12 5 C11.34 5 10.68 5 10 5 C10 4.34 10 3.68 10 3 C9.34 3 8.68 3 8 3 C7.67 4.98 7.34 6.96 7 9 C9.31 8.34 11.62 7.68 14 7 C14 9.31 14 11.62 14 14 C11.69 13.34 9.38 12.68 7 12 C7 13.98 7 15.96 7 18 C11.55737263 17.56179109 14.57653445 17.14958831 18 14 C17.67 15.98 17.34 17.96 17 20 C11.39 20 5.78 20 0 20 C0.33 19.34 0.66 18.68 1 18 C1.2322646 15.28737884 1.41936235 12.59226874 1.5625 9.875 C1.60568359 9.12089844 1.64886719 8.36679687 1.69335938 7.58984375 C1.7994832 5.72678112 1.90025001 3.86341476 2 2 C1.34 2 0.68 2 0 2 C0 1.34 0 0.68 0 0 Z " fill="#271B3E" transform="translate(315,347)"/>
<path d="M0 0 C3.96 0 7.92 0 12 0 C12 1.98 12 3.96 12 6 C10.35 4.68 8.7 3.36 7 2 C7 4.31 7 6.62 7 9 C9.31 8.34 11.62 7.68 14 7 C14 9.31 14 11.62 14 14 C11.69 13.34 9.38 12.68 7 12 C7 13.98 7 15.96 7 18 C12.3907997 17.76995266 12.3907997 17.76995266 17 15.4375 C17.33 14.963125 17.66 14.48875 18 14 C17.67 15.98 17.34 17.96 17 20 C11.39 20 5.78 20 0 20 C0.66 19.67 1.32 19.34 2 19 C1.8595017 16.2079699 1.71284617 13.41650204 1.5625 10.625 C1.50352539 9.43390625 1.50352539 9.43390625 1.44335938 8.21875 C1.31106596 3.97398779 1.31106596 3.97398779 0 0 Z " fill="#291B42" transform="translate(290,347)"/>
<path d="M0 0 C3.96 0 7.92 0 12 0 C12 1.98 12 3.96 12 6 C10.35 4.68 8.7 3.36 7 2 C7 4.31 7 6.62 7 9 C8.98 9 10.96 9 13 9 C13.33 8.34 13.66 7.68 14 7 C14 9.31 14 11.62 14 14 C13.67 13.34 13.34 12.68 13 12 C11.02 12 9.04 12 7 12 C7 13.98 7 15.96 7 18 C12.3907997 17.76995266 12.3907997 17.76995266 17 15.4375 C17.33 14.963125 17.66 14.48875 18 14 C18.042721 15.66611905 18.04063832 17.33382885 18 19 C17 20 17 20 13.18359375 20.09765625 C11.60153318 20.09098089 10.01948841 20.07901875 8.4375 20.0625 C7.63119141 20.05798828 6.82488281 20.05347656 5.99414062 20.04882812 C3.99606244 20.03700518 1.99802217 20.01906914 0 20 C0.66 19.67 1.32 19.34 2 19 C1.8595017 16.2079699 1.71284617 13.41650204 1.5625 10.625 C1.50352539 9.43390625 1.50352539 9.43390625 1.44335938 8.21875 C1.31106596 3.97398779 1.31106596 3.97398779 0 0 Z " fill="#2D1C48" transform="translate(442,347)"/>
<path d="M0 0 C4.95 0 9.9 0 15 0 C15 1.65 15 3.3 15 5 C14.01 4.34 13.02 3.68 12 3 C10.34450469 2.61500109 8.6777567 2.27206865 7 2 C7 4.31 7 6.62 7 9 C8.45880109 8.85892253 9.91703551 8.71197585 11.375 8.5625 C12.18710938 8.48128906 12.99921875 8.40007812 13.8359375 8.31640625 C16.04272805 8.10909886 16.04272805 8.10909886 18 7 C18 9.31 18 11.62 18 14 C17.34 13.67 16.68 13.34 16 13 C14.46331135 12.77532169 12.92031946 12.59203195 11.375 12.4375 C10.55773437 12.35371094 9.74046875 12.26992188 8.8984375 12.18359375 C8.27195313 12.12300781 7.64546875 12.06242187 7 12 C7.66 14.64 8.32 17.28 9 20 C6.03 20 3.06 20 0 20 C0.66 19.67 1.32 19.34 2 19 C1.8595017 16.2079699 1.71284617 13.41650204 1.5625 10.625 C1.50352539 9.43390625 1.50352539 9.43390625 1.44335938 8.21875 C1.31106596 3.97398779 1.31106596 3.97398779 0 0 Z " fill="#201535" transform="translate(239,347)"/>
<path d="M0 0 C0.33 0 0.66 0 1 0 C1 1.98 1 3.96 1 6 C-1.33214148 7.20628008 -3.49642139 8.1654738 -6 9 C-5.319375 9.763125 -4.63875 10.52625 -3.9375 11.3125 C-3.298125 12.199375 -2.65875 13.08625 -2 14 C-2.33 14.99 -2.66 15.98 -3 17 C-4.65 14.69 -6.3 12.38 -8 10 C-8.33 11.98 -8.66 13.96 -9 16 C-8.34 16.33 -7.68 16.66 -7 17 C-9.97 17 -12.94 17 -16 17 C-15.67 16.34 -15.34 15.68 -15 15 C-14.76970044 12.62876754 -14.58880058 10.25258057 -14.4375 7.875 C-14.35371094 6.59367187 -14.26992188 5.31234375 -14.18359375 3.9921875 C-14.09271484 2.51105469 -14.09271484 2.51105469 -14 1 C-13.67 1 -13.34 1 -13 1 C-13 5.95 -13 10.9 -13 16 C-10.75675164 14.18806994 -10.75675164 14.18806994 -10.8046875 11.6171875 C-10.82789063 10.71226562 -10.85109375 9.80734375 -10.875 8.875 C-10.90207031 7.50988281 -10.90207031 7.50988281 -10.9296875 6.1171875 C-10.95289063 5.41851562 -10.97609375 4.71984375 -11 4 C-10.34 3.67 -9.68 3.34 -9 3 C-9 4.32 -9 5.64 -9 7 C-6.03 6.34 -3.06 5.68 0 5 C0 3.35 0 1.7 0 0 Z " fill="#221336" transform="translate(280,350)"/>
<path d="M0 0 C0.33 0 0.66 0 1 0 C1.375 3.1875 1.375 3.1875 1 7 C-1.54163106 9.98641649 -3.13621939 11.61171237 -6.96875 12.41015625 C-11.65544804 12.61745251 -14.94224006 11.43465597 -19 9 C-19 8.34 -19 7.68 -19 7 C-17 5.375 -17 5.375 -15 4 C-13.948125 5.2684375 -13.948125 5.2684375 -12.875 6.5625 C-10.23072929 9.32432103 -10.23072929 9.32432103 -6.875 9.0625 C-3.60697885 7.85475305 -2.64372908 7.02792198 -1 4 C-0.29485154 1.85266073 -0.29485154 1.85266073 0 0 Z " fill="#23163D" transform="translate(434,356)"/>
<path d="M0 0 C1.32 0.33 2.64 0.66 4 1 C4 6.61 4 12.22 4 18 C3.01 18 2.02 18 1 18 C0.67 12.06 0.34 6.12 0 0 Z " fill="#2C1D4A" transform="translate(342,348)"/>
<path d="M0 0 C2.97 0 5.94 0 9 0 C8.67 0.66 8.34 1.32 8 2 C7.77049681 4.204364 7.58924067 6.41392173 7.4375 8.625 C7.35371094 9.81351562 7.26992188 11.00203125 7.18359375 12.2265625 C7.12300781 13.14179688 7.06242187 14.05703125 7 15 C5.0210244 11.36383344 4.4748935 8.11574371 4 4 C4 5.65 4 7.3 4 9 C3.01 9.495 3.01 9.495 2 10 C1.77213542 7.98177083 1.54427083 5.96354167 1.31640625 3.9453125 C1.08707039 1.92595684 1.08707039 1.92595684 0 0 Z " fill="#241738" transform="translate(397,347)"/>
<path d="M0 0 C3.96 0 7.92 0 12 0 C12 1.98 12 3.96 12 6 C11.62875 5.54625 11.2575 5.0925 10.875 4.625 C8.59574264 2.44041222 8.59574264 2.44041222 3 1 C3 7.27 3 13.54 3 20 C2.01 19.67 1.02 19.34 0 19 C0.66 19 1.32 19 2 19 C1.8595017 16.2079699 1.71284617 13.41650204 1.5625 10.625 C1.50352539 9.43390625 1.50352539 9.43390625 1.44335938 8.21875 C1.31106596 3.97398779 1.31106596 3.97398779 0 0 Z " fill="#221733" transform="translate(442,347)"/>
<path d="M0 0 C4.35535069 1.16142685 6.64619703 2.07699505 9 6 C8.67 6.33 8.34 6.66 8 7 C7.95936168 8.66617115 7.957279 10.33388095 8 12 C7.34 12 6.68 12 6 12 C5.79375 10.906875 5.5875 9.81375 5.375 8.6875 C4.34336062 4.7714341 4.34336062 4.7714341 0.875 3.0625 C-0.07375 2.711875 -1.0225 2.36125 -2 2 C-1.34 1.34 -0.68 0.68 0 0 Z " fill="#261C37" transform="translate(379,343)"/>
<path d="M0 0 C1.21807146 2.43614291 0.93871795 3.45896171 0.5625 6.125 C0.01436732 10.46087003 -0.07940796 14.63256199 0 19 C-0.99 19 -1.98 19 -3 19 C-3.31461385 11.90370975 -3.44572039 6.31715405 0 0 Z " fill="#281848" transform="translate(245,348)"/>
<path d="M0 0 C2.02558881 3.34939881 2.21738987 5.86962551 2.125 9.75 C2.10695313 10.73484375 2.08890625 11.7196875 2.0703125 12.734375 C2.04710937 13.48203125 2.02390625 14.2296875 2 15 C1.01 15.33 0.02 15.66 -1 16 C-1.02685095 13.52076199 -1.04676547 11.0418116 -1.0625 8.5625 C-1.07506836 7.50192383 -1.07506836 7.50192383 -1.08789062 6.41992188 C-1.09653588 4.61306441 -1.05220011 2.80612397 -1 1 C-0.67 0.67 -0.34 0.34 0 0 Z " fill="#2D1C4A" transform="translate(268,350)"/>
<path d="M0 0 C2.1793144 1.75864246 2.93686419 2.69396 3.51171875 5.48046875 C3.59873047 6.82044922 3.59873047 6.82044922 3.6875 8.1875 C3.75324219 9.08855469 3.81898438 9.98960937 3.88671875 10.91796875 C3.92410156 11.60503906 3.96148437 12.29210937 4 13 C3.01 13.66 2.02 14.32 1 15 C0.34 14.67 -0.32 14.34 -1 14 C-0.9278125 13.40832031 -0.855625 12.81664062 -0.78125 12.20703125 C-0.30089977 8.11738278 0.13310151 4.1261469 0 0 Z " fill="#2D1C4A" transform="translate(400,350)"/>
<path d="M0 0 C1.125 3.75 1.125 3.75 0 6 C-3.63 6 -7.26 6 -11 6 C-11.33 5.01 -11.66 4.02 -12 3 C-11.30132812 3.03480469 -10.60265625 3.06960938 -9.8828125 3.10546875 C-8.97273438 3.13253906 -8.06265625 3.15960938 -7.125 3.1875 C-6.22007812 3.22230469 -5.31515625 3.25710938 -4.3828125 3.29296875 C-3.59648437 3.19628906 -2.81015625 3.09960938 -2 3 C-1.34 2.01 -0.68 1.02 0 0 Z " fill="#261B3A" transform="translate(307,361)"/>
<path d="M0 0 C0.33 0.99 0.66 1.98 1 3 C-2.4352048 5.29013653 -3.985331 5.17842973 -8 5 C-8 4.34 -8 3.68 -8 3 C-8.66 2.67 -9.32 2.34 -10 2 C-6.7 1.34 -3.4 0.68 0 0 Z " fill="#2C2247" transform="translate(366,369)"/>
<path d="M0 0 C1.11375 0.7115625 1.11375 0.7115625 2.25 1.4375 C4.61050015 2.77869327 6.36648477 3.512312 9 4 C9.33 3.34 9.66 2.68 10 2 C12.475 2.99 12.475 2.99 15 4 C14.67 4.66 14.34 5.32 14 6 C7.94859592 6.41733821 4.82841331 6.10415132 0 2 C0 1.34 0 0.68 0 0 Z " fill="#241C34" transform="translate(278,367)"/>
<path d="M0 0 C0.33 0 0.66 0 1 0 C1.042721 1.66611905 1.04063832 3.33382885 1 5 C0 6 0 6 -2.94140625 6.09765625 C-4.73384766 6.08025391 -4.73384766 6.08025391 -6.5625 6.0625 C-8.35880859 6.04896484 -8.35880859 6.04896484 -10.19140625 6.03515625 C-11.11824219 6.02355469 -12.04507812 6.01195312 -13 6 C-10.21442216 3.21442216 -7.90215707 3.6330631 -4.09375 3.44140625 C-1.60982179 3.17277038 -1.60982179 3.17277038 0 0 Z " fill="#1C1335" transform="translate(459,361)"/>
<path d="M0 0 C3.96 0 7.92 0 12 0 C12 1.65 12 3.3 12 5 C11.34 5 10.68 5 10 5 C10 4.34 10 3.68 10 3 C9.21625 3.020625 8.4325 3.04125 7.625 3.0625 C5 3 5 3 3 2 C2.01 2 1.02 2 0 2 C0 1.34 0 0.68 0 0 Z " fill="#1F192C" transform="translate(315,347)"/>
<path d="M0 0 C0.33 0 0.66 0 1 0 C1.375 3.1875 1.375 3.1875 1 7 C-0.81188028 9.1403498 -2.65801167 10.38988302 -5 12 C-5.66 11.34 -6.32 10.68 -7 10 C-6.21625 9.46375 -5.4325 8.9275 -4.625 8.375 C-1.66573701 5.69757158 -0.95391744 3.81566975 0 0 Z " fill="#201A33" transform="translate(434,356)"/>
<path d="M0 0 C0.33 0 0.66 0 1 0 C1 2.31 1 4.62 1 7 C0.67 6.34 0.34 5.68 0 5 C-1.65 5 -3.3 5 -5 5 C-5.33 4.01 -5.66 3.02 -6 2 C-4.02 2 -2.04 2 0 2 C0 1.34 0 0.68 0 0 Z " fill="#21143C" transform="translate(455,354)"/>
<path d="M0 0 C2.31 0 4.62 0 7 0 C7 0.99 7 1.98 7 3 C4.36 2.67 1.72 2.34 -1 2 C-0.67 1.34 -0.34 0.68 0 0 Z " fill="#2D2442" transform="translate(359,346)"/>
<path d="M0 0 C2.64 0 5.28 0 8 0 C8 1.98 8 3.96 8 6 C7.13375 5.071875 7.13375 5.071875 6.25 4.125 C4.19750179 2.18652947 2.56633418 1.09985751 0 0 Z " fill="#221A31" transform="translate(294,347)"/>
</svg>
